<mxfile host="Electron" modified="2023-05-21T09:27:11.259Z" agent="Mozilla/5.0 (X11; Linux x86_64) AppleWebKit/537.36 (KHTML, like Gecko) draw.io/21.2.8 Chrome/112.0.5615.165 Electron/24.2.0 Safari/537.36" etag="18EsKODsVkTdkxU8RGYN" version="21.2.8" type="device">
  <diagram name="Page-1" id="n8l4Z4l1VfJZoCW4nRgB">
    <mxGraphModel dx="1508" dy="1295" grid="1" gridSize="10" guides="1" tooltips="1" connect="1" arrows="1" fold="1" page="0" pageScale="1" pageWidth="827" pageHeight="1169" math="0" shadow="0">
      <root>
        <mxCell id="0" />
        <mxCell id="1" parent="0" />
        <mxCell id="QnOYNE30lohvEfLOPm0h-1" value="Base" style="rounded=0;whiteSpace=wrap;html=1;" parent="1" vertex="1">
          <mxGeometry x="320" y="160" width="120" height="60" as="geometry" />
        </mxCell>
        <mxCell id="QnOYNE30lohvEfLOPm0h-2" value="EnumField" style="rounded=0;whiteSpace=wrap;html=1;" parent="1" vertex="1">
          <mxGeometry x="40" y="160" width="120" height="60" as="geometry" />
        </mxCell>
        <mxCell id="QnOYNE30lohvEfLOPm0h-3" value="SimpleField" style="rounded=0;whiteSpace=wrap;html=1;" parent="1" vertex="1">
          <mxGeometry x="600" y="160" width="120" height="60" as="geometry" />
        </mxCell>
        <mxCell id="QnOYNE30lohvEfLOPm0h-5" style="edgeStyle=none;rounded=0;orthogonalLoop=1;jettySize=auto;html=1;" parent="1" source="QnOYNE30lohvEfLOPm0h-4" target="QnOYNE30lohvEfLOPm0h-1" edge="1">
          <mxGeometry relative="1" as="geometry" />
        </mxCell>
        <mxCell id="QnOYNE30lohvEfLOPm0h-44" style="edgeStyle=none;rounded=0;orthogonalLoop=1;jettySize=auto;html=1;endArrow=oval;endFill=1;" parent="1" source="QnOYNE30lohvEfLOPm0h-4" target="QnOYNE30lohvEfLOPm0h-3" edge="1">
          <mxGeometry relative="1" as="geometry" />
        </mxCell>
        <mxCell id="QnOYNE30lohvEfLOPm0h-4" value="SimpleStruct" style="rounded=0;whiteSpace=wrap;html=1;fillColor=#d5e8d4;strokeColor=#82b366;" parent="1" vertex="1">
          <mxGeometry x="295" y="390" width="120" height="60" as="geometry" />
        </mxCell>
        <mxCell id="QnOYNE30lohvEfLOPm0h-7" style="edgeStyle=none;rounded=0;orthogonalLoop=1;jettySize=auto;html=1;" parent="1" source="QnOYNE30lohvEfLOPm0h-6" target="QnOYNE30lohvEfLOPm0h-2" edge="1">
          <mxGeometry relative="1" as="geometry" />
        </mxCell>
        <mxCell id="QnOYNE30lohvEfLOPm0h-6" value="Discriminated&lt;br&gt;UnionField" style="rounded=0;whiteSpace=wrap;html=1;" parent="1" vertex="1">
          <mxGeometry x="-20" y="480" width="120" height="60" as="geometry" />
        </mxCell>
        <mxCell id="QnOYNE30lohvEfLOPm0h-13" style="edgeStyle=none;rounded=0;orthogonalLoop=1;jettySize=auto;html=1;" parent="1" source="QnOYNE30lohvEfLOPm0h-12" target="QnOYNE30lohvEfLOPm0h-4" edge="1">
          <mxGeometry relative="1" as="geometry">
            <mxPoint x="340.909090909091" y="590" as="targetPoint" />
          </mxGeometry>
        </mxCell>
        <mxCell id="QnOYNE30lohvEfLOPm0h-12" value="DiscriminatedUnion" style="rounded=0;whiteSpace=wrap;html=1;fillColor=#d5e8d4;strokeColor=#82b366;" parent="1" vertex="1">
          <mxGeometry x="390" y="860" width="120" height="60" as="geometry" />
        </mxCell>
        <mxCell id="QnOYNE30lohvEfLOPm0h-15" style="edgeStyle=none;rounded=0;orthogonalLoop=1;jettySize=auto;html=1;" parent="1" source="QnOYNE30lohvEfLOPm0h-14" target="QnOYNE30lohvEfLOPm0h-1" edge="1">
          <mxGeometry relative="1" as="geometry" />
        </mxCell>
        <mxCell id="QnOYNE30lohvEfLOPm0h-42" style="edgeStyle=none;rounded=0;orthogonalLoop=1;jettySize=auto;html=1;endArrow=oval;endFill=1;" parent="1" source="QnOYNE30lohvEfLOPm0h-14" target="QnOYNE30lohvEfLOPm0h-6" edge="1">
          <mxGeometry relative="1" as="geometry" />
        </mxCell>
        <mxCell id="QnOYNE30lohvEfLOPm0h-14" value="DiscriminatedUnion&lt;br&gt;Union" style="rounded=0;whiteSpace=wrap;html=1;fillColor=#d5e8d4;strokeColor=#82b366;" parent="1" vertex="1">
          <mxGeometry x="455" y="650" width="120" height="60" as="geometry" />
        </mxCell>
        <mxCell id="QnOYNE30lohvEfLOPm0h-17" style="edgeStyle=none;rounded=0;orthogonalLoop=1;jettySize=auto;html=1;entryX=0.932;entryY=0.987;entryDx=0;entryDy=0;entryPerimeter=0;" parent="1" source="QnOYNE30lohvEfLOPm0h-16" target="QnOYNE30lohvEfLOPm0h-1" edge="1">
          <mxGeometry relative="1" as="geometry" />
        </mxCell>
        <mxCell id="QnOYNE30lohvEfLOPm0h-16" value="SimpleEnum" style="rounded=0;whiteSpace=wrap;html=1;fillColor=#d5e8d4;strokeColor=#82b366;" parent="1" vertex="1">
          <mxGeometry x="600" y="270" width="120" height="60" as="geometry" />
        </mxCell>
        <mxCell id="QnOYNE30lohvEfLOPm0h-19" style="edgeStyle=none;rounded=0;orthogonalLoop=1;jettySize=auto;html=1;entryX=0.75;entryY=1;entryDx=0;entryDy=0;" parent="1" source="QnOYNE30lohvEfLOPm0h-18" target="QnOYNE30lohvEfLOPm0h-1" edge="1">
          <mxGeometry relative="1" as="geometry" />
        </mxCell>
        <mxCell id="QnOYNE30lohvEfLOPm0h-43" style="edgeStyle=none;rounded=0;orthogonalLoop=1;jettySize=auto;html=1;endArrow=oval;endFill=1;entryX=1;entryY=0.25;entryDx=0;entryDy=0;" parent="1" source="QnOYNE30lohvEfLOPm0h-18" target="QnOYNE30lohvEfLOPm0h-6" edge="1">
          <mxGeometry relative="1" as="geometry">
            <mxPoint x="110" y="440" as="targetPoint" />
          </mxGeometry>
        </mxCell>
        <mxCell id="QnOYNE30lohvEfLOPm0h-18" value="DiscriminatedUnion&lt;br&gt;Enum" style="rounded=0;whiteSpace=wrap;html=1;fillColor=#d5e8d4;strokeColor=#82b366;" parent="1" vertex="1">
          <mxGeometry x="650" y="610" width="120" height="60" as="geometry" />
        </mxCell>
        <mxCell id="QnOYNE30lohvEfLOPm0h-21" style="edgeStyle=none;rounded=0;orthogonalLoop=1;jettySize=auto;html=1;" parent="1" source="QnOYNE30lohvEfLOPm0h-20" target="QnOYNE30lohvEfLOPm0h-1" edge="1">
          <mxGeometry relative="1" as="geometry" />
        </mxCell>
        <mxCell id="QnOYNE30lohvEfLOPm0h-20" value="Primitive" style="rounded=0;whiteSpace=wrap;html=1;fillColor=#d5e8d4;strokeColor=#82b366;" parent="1" vertex="1">
          <mxGeometry x="150" y="280" width="120" height="60" as="geometry" />
        </mxCell>
        <mxCell id="QnOYNE30lohvEfLOPm0h-22" value="printTypedef" style="rounded=0;whiteSpace=wrap;html=1;fillColor=#fff2cc;strokeColor=#d6b656;" parent="1" vertex="1">
          <mxGeometry x="420" y="150" width="90" height="30" as="geometry" />
        </mxCell>
        <mxCell id="QnOYNE30lohvEfLOPm0h-23" value="printTypedef" style="rounded=0;whiteSpace=wrap;html=1;fillColor=#fff2cc;strokeColor=#d6b656;" parent="1" vertex="1">
          <mxGeometry x="230" y="380" width="90" height="30" as="geometry" />
        </mxCell>
        <mxCell id="QnOYNE30lohvEfLOPm0h-24" value="printTypedef" style="rounded=0;whiteSpace=wrap;html=1;fillColor=#fff2cc;strokeColor=#d6b656;" parent="1" vertex="1">
          <mxGeometry x="485" y="840" width="90" height="30" as="geometry" />
        </mxCell>
        <mxCell id="QnOYNE30lohvEfLOPm0h-25" value="printTypedef" style="rounded=0;whiteSpace=wrap;html=1;fillColor=#fff2cc;strokeColor=#d6b656;" parent="1" vertex="1">
          <mxGeometry x="420" y="695" width="90" height="30" as="geometry" />
        </mxCell>
        <mxCell id="QnOYNE30lohvEfLOPm0h-26" value="printTypedef" style="rounded=0;whiteSpace=wrap;html=1;fillColor=#fff2cc;strokeColor=#d6b656;" parent="1" vertex="1">
          <mxGeometry x="700" y="260" width="90" height="30" as="geometry" />
        </mxCell>
        <mxCell id="QnOYNE30lohvEfLOPm0h-27" value="printTypedef" style="rounded=0;whiteSpace=wrap;html=1;fillColor=#fff2cc;strokeColor=#d6b656;" parent="1" vertex="1">
          <mxGeometry x="750" y="650" width="90" height="30" as="geometry" />
        </mxCell>
        <mxCell id="QnOYNE30lohvEfLOPm0h-28" value="printDefines" style="rounded=0;whiteSpace=wrap;html=1;fillColor=#dae8fc;strokeColor=#6c8ebf;" parent="1" vertex="1">
          <mxGeometry x="255" y="150" width="90" height="30" as="geometry" />
        </mxCell>
        <mxCell id="QnOYNE30lohvEfLOPm0h-29" value="printDefines" style="rounded=0;whiteSpace=wrap;html=1;fillColor=#dae8fc;strokeColor=#6c8ebf;" parent="1" vertex="1">
          <mxGeometry x="-80" y="460" width="90" height="30" as="geometry" />
        </mxCell>
        <mxCell id="QnOYNE30lohvEfLOPm0h-32" value="printDefines" style="rounded=0;whiteSpace=wrap;html=1;fillColor=#dae8fc;strokeColor=#6c8ebf;" parent="1" vertex="1">
          <mxGeometry x="330" y="900" width="90" height="30" as="geometry" />
        </mxCell>
        <mxCell id="QnOYNE30lohvEfLOPm0h-37" value="struct" style="rounded=0;whiteSpace=wrap;html=1;" parent="1" vertex="1">
          <mxGeometry x="570" y="860" width="70" height="30" as="geometry" />
        </mxCell>
        <mxCell id="QnOYNE30lohvEfLOPm0h-38" value="enum" style="rounded=0;whiteSpace=wrap;html=1;" parent="1" vertex="1">
          <mxGeometry x="780" y="280" width="70" height="30" as="geometry" />
        </mxCell>
        <mxCell id="QnOYNE30lohvEfLOPm0h-39" value="enum" style="rounded=0;whiteSpace=wrap;html=1;" parent="1" vertex="1">
          <mxGeometry x="820" y="670" width="70" height="30" as="geometry" />
        </mxCell>
        <mxCell id="QnOYNE30lohvEfLOPm0h-40" value="struct" style="rounded=0;whiteSpace=wrap;html=1;" parent="1" vertex="1">
          <mxGeometry x="185" y="405" width="70" height="30" as="geometry" />
        </mxCell>
        <mxCell id="QnOYNE30lohvEfLOPm0h-41" value="struct" style="rounded=0;whiteSpace=wrap;html=1;" parent="1" vertex="1">
          <mxGeometry x="420" y="720" width="70" height="30" as="geometry" />
        </mxCell>
        <mxCell id="QnOYNE30lohvEfLOPm0h-35" style="edgeStyle=none;rounded=0;orthogonalLoop=1;jettySize=auto;html=1;entryX=0.25;entryY=1;entryDx=0;entryDy=0;endArrow=oval;endFill=1;" parent="1" source="QnOYNE30lohvEfLOPm0h-12" target="QnOYNE30lohvEfLOPm0h-18" edge="1">
          <mxGeometry relative="1" as="geometry" />
        </mxCell>
        <mxCell id="QnOYNE30lohvEfLOPm0h-34" style="edgeStyle=none;rounded=0;orthogonalLoop=1;jettySize=auto;html=1;entryX=0.568;entryY=1.04;entryDx=0;entryDy=0;entryPerimeter=0;endArrow=oval;endFill=1;" parent="1" source="QnOYNE30lohvEfLOPm0h-12" target="QnOYNE30lohvEfLOPm0h-14" edge="1">
          <mxGeometry relative="1" as="geometry" />
        </mxCell>
        <mxCell id="QnOYNE30lohvEfLOPm0h-45" value="printEnum&lt;br&gt;TypedefLine" style="rounded=0;whiteSpace=wrap;html=1;fillColor=#e1d5e7;strokeColor=#9673a6;" parent="1" vertex="1">
          <mxGeometry x="-10" y="130" width="80" height="40" as="geometry" />
        </mxCell>
        <mxCell id="QnOYNE30lohvEfLOPm0h-48" value="printMarkFunctionBody" style="rounded=0;whiteSpace=wrap;html=1;fillColor=#1ba1e2;strokeColor=#006EAF;fontColor=#ffffff;" parent="1" vertex="1">
          <mxGeometry x="390" y="440" width="160" height="20" as="geometry" />
        </mxCell>
        <mxCell id="QnOYNE30lohvEfLOPm0h-50" value="printMarkFunctionBody" style="rounded=0;whiteSpace=wrap;html=1;fillColor=#1ba1e2;strokeColor=#006EAF;fontColor=#ffffff;" parent="1" vertex="1">
          <mxGeometry x="470" y="910" width="160" height="20" as="geometry" />
        </mxCell>
      </root>
    </mxGraphModel>
  </diagram>
</mxfile>
